# Blender 4.0.2
# www.blender.org
mtllib stand.mtl
o bottom_stand
v 10.000000 1.000000 -5.000000
v 10.000000 0.000000 -5.000000
v 10.000000 1.000000 5.000000
v 10.000000 0.000000 5.000000
v -10.000000 1.000000 -5.000000
v -10.000000 0.000000 -5.000000
v -10.000000 1.000000 5.000000
v -10.000000 0.000000 5.000000
vn -0.0000 1.0000 -0.0000
vn -0.0000 -0.0000 1.0000
vn -1.0000 -0.0000 -0.0000
vn -0.0000 -1.0000 -0.0000
vn 1.0000 -0.0000 -0.0000
vn -0.0000 -0.0000 -1.0000
vt 0.875000 0.500000
vt 0.625000 0.750000
vt 0.625000 0.500000
vt 0.375000 1.000000
vt 0.375000 0.750000
vt 0.625000 0.000000
vt 0.375000 0.250000
vt 0.375000 0.000000
vt 0.375000 0.500000
vt 0.125000 0.750000
vt 0.125000 0.500000
vt 0.625000 0.250000
vt 0.875000 0.750000
vt 0.625000 1.000000
s 0
usemtl standMat
f 5/1/1 3/2/1 1/3/1
f 3/2/2 8/4/2 4/5/2
f 7/6/3 6/7/3 8/8/3
f 2/9/4 8/10/4 6/11/4
f 1/3/5 4/5/5 2/9/5
f 5/12/6 2/9/6 6/7/6
f 5/1/1 7/13/1 3/2/1
f 3/2/2 7/14/2 8/4/2
f 7/6/3 5/12/3 6/7/3
f 2/9/4 4/5/4 8/10/4
f 1/3/5 3/2/5 4/5/5
f 5/12/6 1/3/6 2/9/6
o right_stand
v 4.631250 1.261593 -1.000000
v 3.691557 0.919573 -1.000000
v 4.631250 1.261593 1.000000
v 3.691557 0.919573 1.000000
v 1.108443 10.940426 -1.000000
v 0.168750 10.598406 -1.000000
v 1.108443 10.940426 1.000000
v 0.168750 10.598406 1.000000
vn 0.9397 0.3420 -0.0000
vn -0.0000 -0.0000 1.0000
vn -0.3420 0.9397 -0.0000
vn -0.9397 -0.3420 -0.0000
vn 0.3420 -0.9397 -0.0000
vn -0.0000 -0.0000 -1.0000
vt 0.875000 0.500000
vt 0.625000 0.750000
vt 0.625000 0.500000
vt 0.375000 1.000000
vt 0.375000 0.750000
vt 0.625000 0.000000
vt 0.375000 0.250000
vt 0.375000 0.000000
vt 0.375000 0.500000
vt 0.125000 0.750000
vt 0.125000 0.500000
vt 0.625000 0.250000
vt 0.875000 0.750000
vt 0.625000 1.000000
s 0
usemtl standMat
f 13/15/7 11/16/7 9/17/7
f 11/16/8 16/18/8 12/19/8
f 15/20/9 14/21/9 16/22/9
f 10/23/10 16/24/10 14/25/10
f 9/17/11 12/19/11 10/23/11
f 13/26/12 10/23/12 14/21/12
f 13/15/7 15/27/7 11/16/7
f 11/16/8 15/28/8 16/18/8
f 15/20/9 13/26/9 14/21/9
f 10/23/10 12/19/10 16/24/10
f 9/17/11 11/16/11 12/19/11
f 13/26/12 9/17/12 10/23/12
o left_stand
v -3.683007 0.943065 -1.000000
v -4.622700 1.285085 -1.000000
v -3.683007 0.943065 1.000000
v -4.622700 1.285085 1.000000
v -0.177300 10.574915 -1.000000
v -1.116993 10.916935 -1.000000
v -0.177300 10.574915 1.000000
v -1.116993 10.916935 1.000000
vn 0.9397 -0.3420 -0.0000
vn -0.0000 -0.0000 1.0000
vn 0.3420 0.9397 -0.0000
vn -0.9397 0.3420 -0.0000
vn -0.3420 -0.9397 -0.0000
vn -0.0000 -0.0000 -1.0000
vt 0.875000 0.500000
vt 0.625000 0.750000
vt 0.625000 0.500000
vt 0.375000 1.000000
vt 0.375000 0.750000
vt 0.625000 0.000000
vt 0.375000 0.250000
vt 0.375000 0.000000
vt 0.375000 0.500000
vt 0.125000 0.750000
vt 0.125000 0.500000
vt 0.625000 0.250000
vt 0.875000 0.750000
vt 0.625000 1.000000
s 0
usemtl standMat
f 21/29/13 19/30/13 17/31/13
f 19/30/14 24/32/14 20/33/14
f 23/34/15 22/35/15 24/36/15
f 18/37/16 24/38/16 22/39/16
f 17/31/17 20/33/17 18/37/17
f 21/40/18 18/37/18 22/35/18
f 21/29/13 23/41/13 19/30/13
f 19/30/14 23/42/14 24/32/14
f 23/34/15 21/40/15 22/35/15
f 18/37/16 20/33/16 24/38/16
f 17/31/17 19/30/17 20/33/17
f 21/40/18 17/31/18 18/37/18
o circle
v 0.000000 13.500000 -1.000000
v 0.000000 13.500000 1.000000
v 0.292636 13.471178 -1.000000
v 0.292636 13.471178 1.000000
v 0.574025 13.385819 -1.000000
v 0.574025 13.385819 1.000000
v 0.833355 13.247205 -1.000000
v 0.833355 13.247205 1.000000
v 1.060660 13.060660 -1.000000
v 1.060660 13.060660 1.000000
v 1.247204 12.833355 -1.000000
v 1.247204 12.833355 1.000000
v 1.385819 12.574025 -1.000000
v 1.385819 12.574025 1.000000
v 1.471178 12.292636 -1.000000
v 1.471178 12.292636 1.000000
v 1.500000 12.000000 -1.000000
v 1.500000 12.000000 1.000000
v 1.471178 11.707364 -1.000000
v 1.471178 11.707364 1.000000
v 1.385819 11.425975 -1.000000
v 1.385819 11.425975 1.000000
v 1.247204 11.166645 -1.000000
v 1.247204 11.166645 1.000000
v 1.060660 10.939340 -1.000000
v 1.060660 10.939340 1.000000
v 0.833355 10.752795 -1.000000
v 0.833355 10.752795 1.000000
v 0.574025 10.614181 -1.000000
v 0.574025 10.614181 1.000000
v 0.292636 10.528822 -1.000000
v 0.292636 10.528822 1.000000
v 0.000000 10.500000 -1.000000
v 0.000000 10.500000 1.000000
v -0.292636 10.528822 -1.000000
v -0.292636 10.528822 1.000000
v -0.574025 10.614181 -1.000000
v -0.574025 10.614181 1.000000
v -0.833355 10.752795 -1.000000
v -0.833355 10.752795 1.000000
v -1.060660 10.939340 -1.000000
v -1.060660 10.939340 1.000000
v -1.247204 11.166645 -1.000000
v -1.247204 11.166645 1.000000
v -1.385819 11.425975 -1.000000
v -1.385819 11.425975 1.000000
v -1.471178 11.707364 -1.000000
v -1.471178 11.707364 1.000000
v -1.500000 12.000000 -1.000000
v -1.500000 12.000000 1.000000
v -1.471178 12.292636 -1.000000
v -1.471178 12.292636 1.000000
v -1.385819 12.574025 -1.000000
v -1.385819 12.574025 1.000000
v -1.247204 12.833355 -1.000000
v -1.247204 12.833355 1.000000
v -1.060660 13.060660 -1.000000
v -1.060660 13.060660 1.000000
v -0.833355 13.247205 -1.000000
v -0.833355 13.247205 1.000000
v -0.574025 13.385819 -1.000000
v -0.574025 13.385819 1.000000
v -0.292636 13.471178 -1.000000
v -0.292636 13.471178 1.000000
vn 0.0980 0.9952 -0.0000
vn 0.2903 0.9569 -0.0000
vn 0.4714 0.8819 -0.0000
vn 0.6344 0.7730 -0.0000
vn 0.7730 0.6344 -0.0000
vn 0.8819 0.4714 -0.0000
vn 0.9569 0.2903 -0.0000
vn 0.9952 0.0980 -0.0000
vn 0.9952 -0.0980 -0.0000
vn 0.9569 -0.2903 -0.0000
vn 0.8819 -0.4714 -0.0000
vn 0.7730 -0.6344 -0.0000
vn 0.6344 -0.7730 -0.0000
vn 0.4714 -0.8819 -0.0000
vn 0.2903 -0.9569 -0.0000
vn 0.0980 -0.9952 -0.0000
vn -0.0980 -0.9952 -0.0000
vn -0.2903 -0.9569 -0.0000
vn -0.4714 -0.8819 -0.0000
vn -0.6344 -0.7730 -0.0000
vn -0.7730 -0.6344 -0.0000
vn -0.8819 -0.4714 -0.0000
vn -0.9569 -0.2903 -0.0000
vn -0.9952 -0.0980 -0.0000
vn -0.9952 0.0980 -0.0000
vn -0.9569 0.2903 -0.0000
vn -0.8819 0.4714 -0.0000
vn -0.7730 0.6344 -0.0000
vn -0.6344 0.7730 -0.0000
vn -0.4714 0.8819 -0.0000
vn -0.0000 -0.0000 1.0000
vn -0.2903 0.9569 -0.0000
vn -0.0980 0.9952 -0.0000
vn -0.0000 -0.0000 -1.0000
vt 1.000000 1.000000
vt 0.968750 0.500000
vt 1.000000 0.500000
vt 0.968750 1.000000
vt 0.937500 0.500000
vt 0.937500 1.000000
vt 0.906250 0.500000
vt 0.906250 1.000000
vt 0.875000 0.500000
vt 0.875000 1.000000
vt 0.843750 0.500000
vt 0.843750 1.000000
vt 0.812500 0.500000
vt 0.812500 1.000000
vt 0.781250 0.500000
vt 0.781250 1.000000
vt 0.750000 0.500000
vt 0.750000 1.000000
vt 0.718750 0.500000
vt 0.718750 1.000000
vt 0.687500 0.500000
vt 0.687500 1.000000
vt 0.656250 0.500000
vt 0.656250 1.000000
vt 0.625000 0.500000
vt 0.625000 1.000000
vt 0.593750 0.500000
vt 0.593750 1.000000
vt 0.562500 0.500000
vt 0.562500 1.000000
vt 0.531250 0.500000
vt 0.531250 1.000000
vt 0.500000 0.500000
vt 0.500000 1.000000
vt 0.468750 0.500000
vt 0.468750 1.000000
vt 0.437500 0.500000
vt 0.437500 1.000000
vt 0.406250 0.500000
vt 0.406250 1.000000
vt 0.375000 0.500000
vt 0.375000 1.000000
vt 0.343750 0.500000
vt 0.343750 1.000000
vt 0.312500 0.500000
vt 0.312500 1.000000
vt 0.281250 0.500000
vt 0.281250 1.000000
vt 0.250000 0.500000
vt 0.250000 1.000000
vt 0.218750 0.500000
vt 0.218750 1.000000
vt 0.187500 0.500000
vt 0.187500 1.000000
vt 0.156250 0.500000
vt 0.156250 1.000000
vt 0.125000 0.500000
vt 0.125000 1.000000
vt 0.093750 0.500000
vt 0.093750 1.000000
vt 0.062500 0.500000
vt 0.158156 0.028269
vt 0.471731 0.158156
vt 0.341844 0.471731
vt 0.062500 1.000000
vt 0.031250 0.500000
vt 0.031250 1.000000
vt 0.000000 0.500000
vt 0.796822 0.014612
vt 0.514612 0.203178
vt 0.703178 0.485388
vt 0.296822 0.485388
vt 0.250000 0.490000
vt 0.203178 0.485388
vt 0.158156 0.471731
vt 0.116663 0.449553
vt 0.080294 0.419706
vt 0.050447 0.383337
vt 0.028269 0.341844
vt 0.014612 0.296822
vt 0.010000 0.250000
vt 0.014612 0.203178
vt 0.028269 0.158156
vt 0.050447 0.116663
vt 0.080294 0.080294
vt 0.116663 0.050447
vt 0.203178 0.014612
vt 0.250000 0.010000
vt 0.296822 0.014612
vt 0.341844 0.028269
vt 0.383337 0.050447
vt 0.419706 0.080294
vt 0.449553 0.116663
vt 0.485388 0.203178
vt 0.490000 0.250000
vt 0.485388 0.296822
vt 0.471731 0.341844
vt 0.449553 0.383337
vt 0.419706 0.419706
vt 0.383337 0.449553
vt 0.000000 1.000000
vt 0.750000 0.490000
vt 0.796822 0.485388
vt 0.841844 0.471731
vt 0.883337 0.449553
vt 0.919706 0.419706
vt 0.949553 0.383337
vt 0.971731 0.341844
vt 0.985388 0.296822
vt 0.990000 0.250000
vt 0.985388 0.203178
vt 0.971731 0.158156
vt 0.949553 0.116663
vt 0.919706 0.080294
vt 0.883337 0.050447
vt 0.841844 0.028269
vt 0.750000 0.010000
vt 0.703178 0.014612
vt 0.658156 0.028269
vt 0.616663 0.050447
vt 0.580294 0.080294
vt 0.550447 0.116663
vt 0.528269 0.158156
vt 0.510000 0.250000
vt 0.514612 0.296822
vt 0.528269 0.341844
vt 0.550447 0.383337
vt 0.580294 0.419706
vt 0.616663 0.449553
vt 0.658156 0.471731
s 0
usemtl standMat
f 26/43/19 27/44/19 25/45/19
f 28/46/20 29/47/20 27/44/20
f 30/48/21 31/49/21 29/47/21
f 32/50/22 33/51/22 31/49/22
f 34/52/23 35/53/23 33/51/23
f 36/54/24 37/55/24 35/53/24
f 38/56/25 39/57/25 37/55/25
f 40/58/26 41/59/26 39/57/26
f 42/60/27 43/61/27 41/59/27
f 44/62/28 45/63/28 43/61/28
f 46/64/29 47/65/29 45/63/29
f 48/66/30 49/67/30 47/65/30
f 50/68/31 51/69/31 49/67/31
f 52/70/32 53/71/32 51/69/32
f 54/72/33 55/73/33 53/71/33
f 56/74/34 57/75/34 55/73/34
f 58/76/35 59/77/35 57/75/35
f 60/78/36 61/79/36 59/77/36
f 62/80/37 63/81/37 61/79/37
f 64/82/38 65/83/38 63/81/38
f 66/84/39 67/85/39 65/83/39
f 68/86/40 69/87/40 67/85/40
f 70/88/41 71/89/41 69/87/41
f 72/90/42 73/91/42 71/89/42
f 74/92/43 75/93/43 73/91/43
f 76/94/44 77/95/44 75/93/44
f 78/96/45 79/97/45 77/95/45
f 80/98/46 81/99/46 79/97/46
f 82/100/47 83/101/47 81/99/47
f 84/102/48 85/103/48 83/101/48
f 62/104/49 46/105/49 30/106/49
f 86/107/50 87/108/50 85/103/50
f 88/109/51 25/110/51 87/108/51
f 55/111/52 71/112/52 87/113/52
f 26/43/19 28/46/19 27/44/19
f 28/46/20 30/48/20 29/47/20
f 30/48/21 32/50/21 31/49/21
f 32/50/22 34/52/22 33/51/22
f 34/52/23 36/54/23 35/53/23
f 36/54/24 38/56/24 37/55/24
f 38/56/25 40/58/25 39/57/25
f 40/58/26 42/60/26 41/59/26
f 42/60/27 44/62/27 43/61/27
f 44/62/28 46/64/28 45/63/28
f 46/64/29 48/66/29 47/65/29
f 48/66/30 50/68/30 49/67/30
f 50/68/31 52/70/31 51/69/31
f 52/70/32 54/72/32 53/71/32
f 54/72/33 56/74/33 55/73/33
f 56/74/34 58/76/34 57/75/34
f 58/76/35 60/78/35 59/77/35
f 60/78/36 62/80/36 61/79/36
f 62/80/37 64/82/37 63/81/37
f 64/82/38 66/84/38 65/83/38
f 66/84/39 68/86/39 67/85/39
f 68/86/40 70/88/40 69/87/40
f 70/88/41 72/90/41 71/89/41
f 72/90/42 74/92/42 73/91/42
f 74/92/43 76/94/43 75/93/43
f 76/94/44 78/96/44 77/95/44
f 78/96/45 80/98/45 79/97/45
f 80/98/46 82/100/46 81/99/46
f 82/100/47 84/102/47 83/101/47
f 84/102/48 86/107/48 85/103/48
f 30/106/49 28/114/49 26/115/49
f 26/115/49 88/116/49 86/117/49
f 86/117/49 84/118/49 82/119/49
f 82/119/49 80/120/49 78/121/49
f 78/121/49 76/122/49 74/123/49
f 74/123/49 72/124/49 70/125/49
f 70/125/49 68/126/49 66/127/49
f 66/127/49 64/128/49 62/104/49
f 62/104/49 60/129/49 58/130/49
f 58/130/49 56/131/49 54/132/49
f 54/132/49 52/133/49 50/134/49
f 50/134/49 48/135/49 46/105/49
f 46/105/49 44/136/49 42/137/49
f 42/137/49 40/138/49 38/139/49
f 38/139/49 36/140/49 34/141/49
f 34/141/49 32/142/49 30/106/49
f 30/106/49 26/115/49 86/117/49
f 86/117/49 82/119/49 78/121/49
f 78/121/49 74/123/49 70/125/49
f 70/125/49 66/127/49 62/104/49
f 62/104/49 58/130/49 54/132/49
f 54/132/49 50/134/49 46/105/49
f 46/105/49 42/137/49 38/139/49
f 38/139/49 34/141/49 30/106/49
f 30/106/49 86/117/49 78/121/49
f 78/121/49 70/125/49 62/104/49
f 62/104/49 54/132/49 46/105/49
f 46/105/49 38/139/49 30/106/49
f 30/106/49 78/121/49 62/104/49
f 86/107/50 88/109/50 87/108/50
f 88/109/51 26/143/51 25/110/51
f 87/113/52 25/144/52 27/145/52
f 27/145/52 29/146/52 31/147/52
f 31/147/52 33/148/52 35/149/52
f 35/149/52 37/150/52 39/151/52
f 39/151/52 41/152/52 43/153/52
f 43/153/52 45/154/52 47/155/52
f 47/155/52 49/156/52 51/157/52
f 51/157/52 53/158/52 55/111/52
f 55/111/52 57/159/52 59/160/52
f 59/160/52 61/161/52 63/162/52
f 63/162/52 65/163/52 67/164/52
f 67/164/52 69/165/52 71/112/52
f 71/112/52 73/166/52 75/167/52
f 75/167/52 77/168/52 79/169/52
f 79/169/52 81/170/52 83/171/52
f 83/171/52 85/172/52 87/113/52
f 87/113/52 27/145/52 31/147/52
f 31/147/52 35/149/52 39/151/52
f 39/151/52 43/153/52 47/155/52
f 47/155/52 51/157/52 55/111/52
f 55/111/52 59/160/52 63/162/52
f 63/162/52 67/164/52 71/112/52
f 71/112/52 75/167/52 79/169/52
f 79/169/52 83/171/52 87/113/52
f 87/113/52 31/147/52 39/151/52
f 39/151/52 47/155/52 55/111/52
f 55/111/52 63/162/52 71/112/52
f 71/112/52 79/169/52 87/113/52
f 87/113/52 39/151/52 55/111/52
